# xmcd CD database file
#
# Track frame offsets:
#	180
#	27781
#	43383
#	68740
#	85165
#	104892
#	133164
#	153265
#	179967
#	201486
#
# Disc length: 2867 seconds
#
# Revision: 0
# Processed by: cddbd v1.5.1PL0 Copyright (c) Steve Scherf et al.
# Submitted via: CDex 1.51
#
DISCID=990b310a
DTITLE=Various Artist - Blue Velvet Play with Fire
DYEAR=1900
DGENRE=Blues
TTITLE0=Mustang Sally (Bonny Rice)
TTITLE1=Let me Love You (Willie Dixon)
TTITLE2=Fire and Rain (James Taylor)
TTITLE3=Every Day (B.B. King, P. Chatman)
TTITLE4=Long Train Running (Tom Johnson)
TTITLE5=Play With Fire (Jagger-Richards)
TTITLE6=Daddy Dont Live in that New York City no More (D. Fagen, W.Becker)
TTITLE7=Red House (Jimmy Hendrix)
TTITLE8=Steamy Windows (T,J, White)
TTITLE9=Moving On (Gary Moore)
EXTD=
EXTT0=
EXTT1=
EXTT2=
EXTT3=
EXTT4=
EXTT5=
EXTT6=
EXTT7=
EXTT8=
EXTT9=
PLAYORDER=
